<?xml version="1.0" encoding="utf-8"?>
<!-- Generator: Adobe Illustrator 21.0.0, SVG Export Plug-In . SVG Version: 6.00 Build 0)  -->
<svg version="1.1" id="Layer_1" xmlns="http://www.w3.org/2000/svg" xmlns:xlink="http://www.w3.org/1999/xlink" x="0px" y="0px"
	 viewBox="0 0 612 792" enable-background="new 0 0 612 792" xml:space="preserve">
<g>
	<g>
		<path fill="#E89100" d="M306.3,67.6c-28.9-0.7-56.8,4.7-83.9,14.3c-18.2,6.4-35.3,15-51.6,25.4c-19.5,12.3-36.8,27.1-52.3,43.9
			c-11.9,12.8-22.1,27-31.1,42.1c-9.9,16.7-17.6,34.4-23.2,53c-3.5,11.6-6.2,23.4-7.8,35.4c-1.2,8.7-1.9,17.3-2.5,26
			c-0.4,5.6-0.8,11.3-0.5,16.9c0.8,13.3,1.9,26.6,4.4,39.8c2.4,12.8,5.5,25.4,9.8,37.7c8.8,25.3,21.6,48.4,37.8,69.8
			c5.4,7.1,12,13.3,16.6,21.1c9.8,16.8-1.8,36.2-19.3,38.9c-12.2,1.9-20-4.1-26.6-13.3c-10.9-15.2-22.3-30.1-32.5-45.8
			c-10-15.5-17.7-32.1-24.2-49.2c-6.3-16.5-11-33.5-14.2-50.9c-1.7-9.2-2.9-18.4-3.5-27.8c-0.7-9.8-1.8-19.6-1.4-29.4
			C1,301.8,1.9,288,4,274.2c3-19.6,7.9-38.6,14.5-57.2c6.4-17.9,14.7-34.9,24.2-51.4c7.9-13.8,17-26.9,27-39.2
			c10.5-12.9,22.3-24.7,34.7-35.9c10.2-9.2,21-17.4,32.3-25c29.9-20,62.4-34,97.4-42.2c12.5-3,25.1-5.1,37.8-6.4
			c8.1-0.8,16.2-0.7,24.2-1.7c10.2-1.2,20.2,0.1,30.2,0.5c13.8,0.5,27.6,2.8,41.2,5.6c12.6,2.6,25.1,5.9,37.2,10.1
			c27.4,9.4,53,22.4,76.7,39c11.3,7.9,21.9,16.7,32.1,26.1c28.6,26.4,51,57.2,67.8,92.2c13.7,28.7,22.5,58.9,26.7,90.4
			c3,22.6,4,45.2,2.1,67.8c-2.9,34.7-11.7,67.8-26.7,99.3c-12.9,27.2-29.5,51.8-49,74.5c-8.8,10.3-21.2,14-31.8,9.7
			c-14.7-6-20.6-21.9-13.3-36.3c3.7-7.4,9.8-13,14.7-19.5c25.5-33.3,42.4-70.4,49.9-111.8c4-22.2,5.1-44.5,3-66.9
			c-3-31.6-11.4-61.8-26-90.1c-8.4-16.4-18.4-31.7-30.1-46c-7.9-9.6-16.5-18.5-25.6-26.8c-13.2-12-27.7-22.5-43.3-31.4
			c-16.8-9.5-34.2-17.3-52.7-23c-14.5-4.5-29.2-7.6-44.2-9.5C325.7,67.9,316,67.6,306.3,67.6z"/>
		<path fill="#E89100" d="M306.7,608.7c-49.8,0-99.6,0-149.4,0c-4,0-7.9-0.3-11.8-1.2c-13.8-3.3-20.3-12.5-19.5-27.4
			c0.7-12.1,9.2-20.9,22-22.6c3.5-0.5,7.1-0.7,10.7-0.7c98.7,0,197.3,0,296,0c4.5,0,9,0.2,13.4,1.3c13.1,3.2,20.4,13,19.5,26.3
			c-1,13.4-9.4,22.2-22.7,23.6c-3.8,0.4-7.6,0.6-11.4,0.6C404.4,608.7,355.5,608.7,306.7,608.7z"/>
		<path fill="#E89100" d="M306.8,685.9c-50.6,0-101.2,0-151.7,0c-5.6,0-11-0.8-16.1-3.3c-10-4.9-14.5-14.7-12.7-27.7
			c1.4-10.1,9.5-17.9,20.5-19.7c3.4-0.6,6.8-0.9,10.2-0.9c100,0,200,0,299.9,0c4.3,0,8.4,0.4,12.5,1.6c11.9,3.4,18.5,12.6,18.1,25.1
			c-0.4,12.5-7.6,21.3-19.6,24c-3.2,0.7-6.5,0.9-9.8,0.9C407.7,685.9,357.2,685.9,306.8,685.9z"/>
		<path fill="#E89100" d="M306.8,711.9c33.4,0,66.8,0,100.2,0c4.1,0,8.1,0.4,12.1,1.7c10.9,3.7,17.6,13.5,16.8,24.9
			c-0.8,13.1-8.4,21.9-20.5,24.1c-3.1,0.5-6.3,0.8-9.4,0.8c-66.5,0-133.1,0-199.6,0c-7.6,0-14.7-1.5-20.6-6.6
			c-7.8-6.8-10.4-18.2-6.7-28.7c3.2-9.3,12.1-15.7,23.2-16c11.7-0.3,23.5-0.1,35.2-0.2C260.6,711.9,283.7,711.9,306.8,711.9z"/>
		<path fill="#E89100" d="M272.1,303.5c0.6,0.5,1,0.8,1.5,1c12.4,5.5,19.1,15.2,19.5,28.7c0.5,14.3-4.8,26.2-17.7,33
			c-17.7,9.4-36.1,9.4-53.8-0.1c-12.8-6.9-17.7-18.9-17.2-33.2c0.5-13.2,6.8-22.4,18.6-28c0.8-0.4,1.7-0.6,2.2-1.5
			c-0.3-0.2-0.6-0.5-1-0.7c-21.6-10.5-19.3-37.6-3.4-49.4c16.7-12.5,47.6-10.2,60.5,4.8c12.1,14,9.1,33.9-6.6,43.7
			C274,302.3,273.1,302.8,272.1,303.5z M248.5,312.6c-12.6,0-20.7,8.3-20.8,21.3c0,13.2,8.5,22.2,21,22.2c12.5,0,21.1-9,21.1-22.1
			C269.8,321.1,261.3,312.6,248.5,312.6z M248.4,295.8c10.8,0,18-6.6,18.1-16.6c0-10.2-7.2-17.3-17.8-17.4c-10.8-0.1-18,6.8-18,17.1
			C230.5,289,237.7,295.8,248.4,295.8z"/>
		<path fill="#1D9300" d="M314.1,309.6c0-14.3,0-28.5,0-42.8c0-2.6,0.2-5.3,0.6-7.8c1-6.2,5.2-10.1,11.6-10.1
			c23.6-0.1,47.3-0.1,70.9,0c5.2,0,9.6,4.6,9.5,9.1c-0.1,4.8-4.6,8.9-10.2,8.9c-17.8,0.1-35.6,0.1-53.5-0.1c-3.7,0-4.6,1-4.5,4.5
			c0.3,7.8,0.2,15.6,0,23.4c-0.1,2.6,0.7,3.3,3.3,3.3c16.5-0.1,33-0.1,49.5,0c6.3,0,10.1,3.5,10.1,9c0,5.5-3.8,9-10.1,9.1
			c-16.2,0-32.5,0.1-48.7-0.1c-3.3,0-4.2,0.7-4.1,4.1c0.2,9.2,0.2,18.5,0,27.7c-0.1,3.2,0.6,4.2,4,4.2c18.3-0.2,36.7-0.1,55.1-0.1
			c5.9,0,10.5,3.8,10.8,8.6c0.4,5.4-3.8,10.1-9.6,10.2c-24.2,0.1-48.3,0.2-72.5,0c-8.4-0.1-12.3-5.7-12.4-16.7
			C314,339.2,314.1,324.4,314.1,309.6z"/>
		<path fill="#E89100" d="M188,310.3c-0.3,10.6-0.6,21.5-4,32.1c-7.8,24-31.4,36.4-53.7,27.9c-14.9-5.7-23.4-17.2-26.9-32.3
			c-4.7-20.5-4.3-41.2,0.8-61.5c4.9-19.1,18.7-30.6,36.1-31.1c21.4-0.7,36.1,9.3,42.9,29.1C187.1,285.9,187.8,297.9,188,310.3z
			 M164.4,308.5c0-3.3,0.2-6.6,0-9.9c-0.5-8.8-1-17.7-4.7-25.9c-3.7-8.1-10.7-11.6-19.4-9.8c-8,1.6-11.4,7.6-13.1,14.7
			c-4.2,17.1-3.7,34.5-2,51.9c0.6,6.2,1.8,12.2,5.1,17.7c6.7,11.1,21.7,11,28.3-0.1c1.7-3,2.9-6.2,3.7-9.5
			C164.3,328,164.4,318.3,164.4,308.5z"/>
		<path fill="#1D9300" d="M428,308.5c0-16.4-0.1-32.7,0-49.1c0.1-10.6,9.8-16.5,18.4-11.3c4,2.4,5.4,6.3,5.6,10.6
			c0.3,5,0.2,10,0.2,15c0,24.4,0.1,48.8-0.1,73.2c0,3.2,0.6,4.2,4,4.2c15.8-0.2,31.7-0.1,47.5-0.1c3.7,0,7.1,1,9.4,3.9
			c2.5,3,3.1,6.5,1.2,10.2c-2.1,4.2-5.8,5.5-10.1,5.5c-14.6,0.1-29.3,0-43.9,0c-5.9,0-11.9,0-17.8,0c-10.1,0-14.5-4.4-14.5-14.7
			C428,340.2,428,324.3,428,308.5z"/>
	</g>
</g>
</svg>
